<mxfile host="Electron" agent="Mozilla/5.0 (Windows NT 10.0; Win64; x64) AppleWebKit/537.36 (KHTML, like Gecko) draw.io/26.1.1 Chrome/132.0.6834.210 Electron/34.3.3 Safari/537.36" version="26.1.1">
  <diagram name="Advanced FIFO Controller" id="Advanced-FIFO-Controller">
    <mxGraphModel dx         = "0"
                  dy         = "0"
                  grid       = "1"
                  gridSize   = "10"
                  guides     = "1"
                  tooltips   = "1"
                  connect    = "1"
                  arrows     = "1"
                  fold       = "1"
                  page       = "1"
                  pageScale  = "1"
                  pageWidth  = "180"
                  pageHeight = "230"
                  math       = "0"
                  shadow     = "0">
      <root>
        <mxCell id="0"/>
        <mxCell id="1" parent="0"/>
        <mxCell id          = "2"
                parent      = "1"
                value       = ""
                vertex      = "1"
                connectable = "0"
                style       = "group;connectable=1;points=[[0,0,0,15,0],[0,0,0,25,0],[0,0,0,15,10],[1,0,0,-15,0],[1,0,0,-25,0],[1,0,0,-15,10],[0,0,0,0,30],[0,0,0,0,40],[0,0,0,0,50],[0,0,0,0,60],[1,0,0,0,60],[0,0,0,0,70],[1,0,0,0,70],[0,0,0,0,80],[1,0,0,0,80],[0,0,0,0,90],[1,0,0,0,90],[0,0,0,0,100],[1,0,0,0,100],[0,0,0,0,110],[1,0,0,0,110],[0,0,0,0,120],[1,0,0,0,120],[0,0,0,0,130],[1,0,0,0,130],[0,0,0,0,140],[1,0,0,0,140],[0,0,0,0,150],[1,0,0,0,150],[1,0,0,0,160],[1,0,0,0,170],[1,0,0,0,180],[1,0,0,0,190],[1,0,0,0,200],[1,0,0,0,210],[1,0,0,0,220],[0.5,0,0,0,0],[0.5,0,0,0,230]];">
          <mxGeometry width  = "180"
                      height = "230"
                      as     = "geometry"/>
        </mxCell>
        <mxCell id     = "box"
                parent = "2"
                value  = ""
                vertex = "1"
                style  = "rounded=1;arcSize=5;fillColor=none;strokeWidth=1;strokeColor=black;whiteSpace=wrap;html=1;connectable=0;">
          <mxGeometry x="15"
                      y="0"
                      width="150"
                      height="230"
                      as="geometry"/>
        </mxCell>
        <mxCell id     = "title"
                parent = "2"
                value  = "Advanced FIFO Controller"
                vertex = "1"
                style  = "text;html=1;align=center;verticalAlign=middle;whiteSpace=wrap;rounded=0;fontSize=8;fontStyle=1;fontColor=black;connectable=0;">
          <mxGeometry x      = "15"
                      y      = "7"
                      width  = "150"
                      height = "0"
                      as     = "geometry"/>
        </mxCell>
        <mxCell id     = "subtitle"
                parent = "2"
                value  = "advanced_fifo_controller"
                vertex = "1"
                style  = "text;html=1;align=center;verticalAlign=middle;whiteSpace=wrap;rounded=0;fontSize=6;fontStyle=0;fontColor=black;connectable=0;">
          <mxGeometry x      = "15"
                      y      = "16"
                      width  = "150"
                      height = "0"
                      as     = "geometry"/>
        </mxCell>
            <mxCell id     = "clock-label"
                    parent = "2"
                    value  = "clock"
                    vertex = "1"
                    style  = "text;html=1;align=left;verticalAlign=middle;whiteSpace=wrap;rounded=0;fontSize=6;fontStyle=0;fontColor=black;connectable=0;">
              <mxGeometry
                x      = "15"
                y      = "30"
                width  = "150"
                height = "0"
                as     = "geometry"/>
            </mxCell>
            <mxCell id     = "clock-arrow"
                    parent = "2"
                    value  = ""
                    edge   = "1"
                    style  = "html=1;rounded=1;strokeWidth=1;strokeColor=black;startFill=0;startSize=2;startArrow=none;endFill=1;endSize=2;endArrow=blockThin;sourcePerimeterSpacing=0;">
              <mxGeometry width    = "50"
                          height   = "50"
                          relative = "1"
                          as       = "geometry">
                <mxPoint x  = "0"
                         y  = "30"
                         as = "sourcePoint"/>
                <mxPoint x  = "15"
                         y  = "30"
                         as = "targetPoint"/>
              </mxGeometry>
            </mxCell>
            <mxCell id     = "resetn-label"
                    parent = "2"
                    value  = "resetn"
                    vertex = "1"
                    style  = "text;html=1;align=left;verticalAlign=middle;whiteSpace=wrap;rounded=0;fontSize=6;fontStyle=0;fontColor=black;connectable=0;">
              <mxGeometry
                x      = "15"
                y      = "40"
                width  = "150"
                height = "0"
                as     = "geometry"/>
            </mxCell>
            <mxCell id     = "resetn-arrow"
                    parent = "2"
                    value  = ""
                    edge   = "1"
                    style  = "html=1;rounded=1;strokeWidth=1;strokeColor=black;startFill=0;startSize=2;startArrow=none;endFill=1;endSize=2;endArrow=blockThin;sourcePerimeterSpacing=0;">
              <mxGeometry width    = "50"
                          height   = "50"
                          relative = "1"
                          as       = "geometry">
                <mxPoint x  = "0"
                         y  = "40"
                         as = "sourcePoint"/>
                <mxPoint x  = "15"
                         y  = "40"
                         as = "targetPoint"/>
              </mxGeometry>
            </mxCell>
            <mxCell id     = "flush-label"
                    parent = "2"
                    value  = "flush"
                    vertex = "1"
                    style  = "text;html=1;align=left;verticalAlign=middle;whiteSpace=wrap;rounded=0;fontSize=6;fontStyle=0;fontColor=black;connectable=0;">
              <mxGeometry
                x      = "15"
                y      = "50"
                width  = "150"
                height = "0"
                as     = "geometry"/>
            </mxCell>
            <mxCell id     = "flush-arrow"
                    parent = "2"
                    value  = ""
                    edge   = "1"
                    style  = "html=1;rounded=1;strokeWidth=1;strokeColor=black;startFill=0;startSize=2;startArrow=none;endFill=1;endSize=2;endArrow=blockThin;sourcePerimeterSpacing=0;">
              <mxGeometry width    = "50"
                          height   = "50"
                          relative = "1"
                          as       = "geometry">
                <mxPoint x  = "0"
                         y  = "50"
                         as = "sourcePoint"/>
                <mxPoint x  = "15"
                         y  = "50"
                         as = "targetPoint"/>
              </mxGeometry>
            </mxCell>
            <mxCell id     = "write_enable-label"
                    parent = "2"
                    value  = "write_enable"
                    vertex = "1"
                    style  = "text;html=1;align=left;verticalAlign=middle;whiteSpace=wrap;rounded=0;fontSize=6;fontStyle=0;fontColor=black;connectable=0;">
              <mxGeometry
                x      = "15"
                y      = "60"
                width  = "150"
                height = "0"
                as     = "geometry"/>
            </mxCell>
            <mxCell id     = "write_enable-arrow"
                    parent = "2"
                    value  = ""
                    edge   = "1"
                    style  = "html=1;rounded=1;strokeWidth=1;strokeColor=black;startFill=0;startSize=2;startArrow=none;endFill=1;endSize=2;endArrow=blockThin;sourcePerimeterSpacing=0;">
              <mxGeometry width    = "50"
                          height   = "50"
                          relative = "1"
                          as       = "geometry">
                <mxPoint x  = "0"
                         y  = "60"
                         as = "sourcePoint"/>
                <mxPoint x  = "15"
                         y  = "60"
                         as = "targetPoint"/>
              </mxGeometry>
            </mxCell>
            <mxCell id="read_enable-label"
                    parent="2"
                    value="read_enable"
                    vertex="1"
                    style="text;html=1;align=right;verticalAlign=middle;whiteSpace=wrap;rounded=0;fontSize=6;fontStyle=0;fontColor=black;connectable=0;">
              <mxGeometry
                x      = "15"
                y      = "60"
                width  = "150"
                height = "0"
                as     = "geometry"/>
            </mxCell>
            <mxCell id     = "read_enable-arrow"
                    parent = "2"
                    value  = ""
                    edge   = "1"
                    style  = "html=1;rounded=1;strokeWidth=1;strokeColor=black;startFill=0;startSize=2;startArrow=none;endFill=1;endSize=2;endArrow=blockThin;sourcePerimeterSpacing=0;">
              <mxGeometry width    = "50"
                          height   = "50"
                          relative = "1"
                          as       = "geometry">
                <mxPoint x  = "180"
                         y  = "60"
                         as = "sourcePoint"/>
                <mxPoint x  = "165"
                         y  = "60"
                         as = "targetPoint"/>
              </mxGeometry>
            </mxCell>
            <mxCell id     = "write_data-label"
                    parent = "2"
                    value  = "write_data"
                    vertex = "1"
                    style  = "text;html=1;align=left;verticalAlign=middle;whiteSpace=wrap;rounded=0;fontSize=6;fontStyle=0;fontColor=black;connectable=0;">
              <mxGeometry
                x      = "15"
                y      = "70"
                width  = "150"
                height = "0"
                as     = "geometry"/>
            </mxCell>
            <mxCell id     = "write_data-arrow"
                    parent = "2"
                    value  = ""
                    edge   = "1"
                    style  = "html=1;rounded=1;strokeWidth=1;strokeColor=black;startFill=0;startSize=2;startArrow=dash;endFill=1;endSize=2;endArrow=blockThin;sourcePerimeterSpacing=0;">
              <mxGeometry width    = "50"
                          height   = "50"
                          relative = "1"
                          as       = "geometry">
                <mxPoint x  = "0"
                         y  = "70"
                         as = "sourcePoint"/>
                <mxPoint x  = "15"
                         y  = "70"
                         as = "targetPoint"/>
              </mxGeometry>
            </mxCell>
            <mxCell id="read_data-label"
                    parent="2"
                    value="read_data"
                    vertex="1"
                    style="text;html=1;align=right;verticalAlign=middle;whiteSpace=wrap;rounded=0;fontSize=6;fontStyle=0;fontColor=black;connectable=0;">
              <mxGeometry
                x      = "15"
                y      = "70"
                width  = "150"
                height = "0"
                as     = "geometry"/>
            </mxCell>
            <mxCell id     = "read_data-arrow"
                    parent = "2"
                    value  = ""
                    edge   = "1"
                    style  = "html=1;rounded=1;strokeWidth=1;strokeColor=black;startFill=0;startSize=2;startArrow=dash;endFill=1;endSize=2;endArrow=none;sourcePerimeterSpacing=0;">
              <mxGeometry width    = "50"
                          height   = "50"
                          relative = "1"
                          as       = "geometry">
                <mxPoint x  = "180"
                         y  = "70"
                         as = "sourcePoint"/>
                <mxPoint x  = "165"
                         y  = "70"
                         as = "targetPoint"/>
              </mxGeometry>
            </mxCell>
            <mxCell id     = "write_miss-label"
                    parent = "2"
                    value  = "write_miss"
                    vertex = "1"
                    style  = "text;html=1;align=left;verticalAlign=middle;whiteSpace=wrap;rounded=0;fontSize=6;fontStyle=0;fontColor=black;connectable=0;">
              <mxGeometry
                x      = "15"
                y      = "80"
                width  = "150"
                height = "0"
                as     = "geometry"/>
            </mxCell>
            <mxCell id     = "write_miss-arrow"
                    parent = "2"
                    value  = ""
                    edge   = "1"
                    style  = "html=1;rounded=1;strokeWidth=1;strokeColor=black;startFill=0;startSize=2;startArrow=none;endFill=1;endSize=2;endArrow=none;sourcePerimeterSpacing=0;">
              <mxGeometry width    = "50"
                          height   = "50"
                          relative = "1"
                          as       = "geometry">
                <mxPoint x  = "0"
                         y  = "80"
                         as = "sourcePoint"/>
                <mxPoint x  = "15"
                         y  = "80"
                         as = "targetPoint"/>
              </mxGeometry>
            </mxCell>
            <mxCell id="read_error-label"
                    parent="2"
                    value="read_error"
                    vertex="1"
                    style="text;html=1;align=right;verticalAlign=middle;whiteSpace=wrap;rounded=0;fontSize=6;fontStyle=0;fontColor=black;connectable=0;">
              <mxGeometry
                x      = "15"
                y      = "80"
                width  = "150"
                height = "0"
                as     = "geometry"/>
            </mxCell>
            <mxCell id     = "read_error-arrow"
                    parent = "2"
                    value  = ""
                    edge   = "1"
                    style  = "html=1;rounded=1;strokeWidth=1;strokeColor=black;startFill=0;startSize=2;startArrow=none;endFill=1;endSize=2;endArrow=none;sourcePerimeterSpacing=0;">
              <mxGeometry width    = "50"
                          height   = "50"
                          relative = "1"
                          as       = "geometry">
                <mxPoint x  = "180"
                         y  = "80"
                         as = "sourcePoint"/>
                <mxPoint x  = "165"
                         y  = "80"
                         as = "targetPoint"/>
              </mxGeometry>
            </mxCell>
            <mxCell id     = "full-label"
                    parent = "2"
                    value  = "full"
                    vertex = "1"
                    style  = "text;html=1;align=left;verticalAlign=middle;whiteSpace=wrap;rounded=0;fontSize=6;fontStyle=0;fontColor=black;connectable=0;">
              <mxGeometry
                x      = "15"
                y      = "90"
                width  = "150"
                height = "0"
                as     = "geometry"/>
            </mxCell>
            <mxCell id     = "full-arrow"
                    parent = "2"
                    value  = ""
                    edge   = "1"
                    style  = "html=1;rounded=1;strokeWidth=1;strokeColor=black;startFill=0;startSize=2;startArrow=none;endFill=1;endSize=2;endArrow=none;sourcePerimeterSpacing=0;">
              <mxGeometry width    = "50"
                          height   = "50"
                          relative = "1"
                          as       = "geometry">
                <mxPoint x  = "0"
                         y  = "90"
                         as = "sourcePoint"/>
                <mxPoint x  = "15"
                         y  = "90"
                         as = "targetPoint"/>
              </mxGeometry>
            </mxCell>
            <mxCell id="empty-label"
                    parent="2"
                    value="empty"
                    vertex="1"
                    style="text;html=1;align=right;verticalAlign=middle;whiteSpace=wrap;rounded=0;fontSize=6;fontStyle=0;fontColor=black;connectable=0;">
              <mxGeometry
                x      = "15"
                y      = "90"
                width  = "150"
                height = "0"
                as     = "geometry"/>
            </mxCell>
            <mxCell id     = "empty-arrow"
                    parent = "2"
                    value  = ""
                    edge   = "1"
                    style  = "html=1;rounded=1;strokeWidth=1;strokeColor=black;startFill=0;startSize=2;startArrow=none;endFill=1;endSize=2;endArrow=none;sourcePerimeterSpacing=0;">
              <mxGeometry width    = "50"
                          height   = "50"
                          relative = "1"
                          as       = "geometry">
                <mxPoint x  = "180"
                         y  = "90"
                         as = "sourcePoint"/>
                <mxPoint x  = "165"
                         y  = "90"
                         as = "targetPoint"/>
              </mxGeometry>
            </mxCell>
            <mxCell id     = "almost_full-label"
                    parent = "2"
                    value  = "almost_full"
                    vertex = "1"
                    style  = "text;html=1;align=left;verticalAlign=middle;whiteSpace=wrap;rounded=0;fontSize=6;fontStyle=0;fontColor=black;connectable=0;">
              <mxGeometry
                x      = "15"
                y      = "100"
                width  = "150"
                height = "0"
                as     = "geometry"/>
            </mxCell>
            <mxCell id     = "almost_full-arrow"
                    parent = "2"
                    value  = ""
                    edge   = "1"
                    style  = "html=1;rounded=1;strokeWidth=1;strokeColor=black;startFill=0;startSize=2;startArrow=none;endFill=1;endSize=2;endArrow=none;sourcePerimeterSpacing=0;">
              <mxGeometry width    = "50"
                          height   = "50"
                          relative = "1"
                          as       = "geometry">
                <mxPoint x  = "0"
                         y  = "100"
                         as = "sourcePoint"/>
                <mxPoint x  = "15"
                         y  = "100"
                         as = "targetPoint"/>
              </mxGeometry>
            </mxCell>
            <mxCell id="almost_empty-label"
                    parent="2"
                    value="almost_empty"
                    vertex="1"
                    style="text;html=1;align=right;verticalAlign=middle;whiteSpace=wrap;rounded=0;fontSize=6;fontStyle=0;fontColor=black;connectable=0;">
              <mxGeometry
                x      = "15"
                y      = "100"
                width  = "150"
                height = "0"
                as     = "geometry"/>
            </mxCell>
            <mxCell id     = "almost_empty-arrow"
                    parent = "2"
                    value  = ""
                    edge   = "1"
                    style  = "html=1;rounded=1;strokeWidth=1;strokeColor=black;startFill=0;startSize=2;startArrow=none;endFill=1;endSize=2;endArrow=none;sourcePerimeterSpacing=0;">
              <mxGeometry width    = "50"
                          height   = "50"
                          relative = "1"
                          as       = "geometry">
                <mxPoint x  = "180"
                         y  = "100"
                         as = "sourcePoint"/>
                <mxPoint x  = "165"
                         y  = "100"
                         as = "targetPoint"/>
              </mxGeometry>
            </mxCell>
            <mxCell id     = "half_full-label"
                    parent = "2"
                    value  = "half_full"
                    vertex = "1"
                    style  = "text;html=1;align=left;verticalAlign=middle;whiteSpace=wrap;rounded=0;fontSize=6;fontStyle=0;fontColor=black;connectable=0;">
              <mxGeometry
                x      = "15"
                y      = "110"
                width  = "150"
                height = "0"
                as     = "geometry"/>
            </mxCell>
            <mxCell id     = "half_full-arrow"
                    parent = "2"
                    value  = ""
                    edge   = "1"
                    style  = "html=1;rounded=1;strokeWidth=1;strokeColor=black;startFill=0;startSize=2;startArrow=none;endFill=1;endSize=2;endArrow=none;sourcePerimeterSpacing=0;">
              <mxGeometry width    = "50"
                          height   = "50"
                          relative = "1"
                          as       = "geometry">
                <mxPoint x  = "0"
                         y  = "110"
                         as = "sourcePoint"/>
                <mxPoint x  = "15"
                         y  = "110"
                         as = "targetPoint"/>
              </mxGeometry>
            </mxCell>
            <mxCell id="half_empty-label"
                    parent="2"
                    value="half_empty"
                    vertex="1"
                    style="text;html=1;align=right;verticalAlign=middle;whiteSpace=wrap;rounded=0;fontSize=6;fontStyle=0;fontColor=black;connectable=0;">
              <mxGeometry
                x      = "15"
                y      = "110"
                width  = "150"
                height = "0"
                as     = "geometry"/>
            </mxCell>
            <mxCell id     = "half_empty-arrow"
                    parent = "2"
                    value  = ""
                    edge   = "1"
                    style  = "html=1;rounded=1;strokeWidth=1;strokeColor=black;startFill=0;startSize=2;startArrow=none;endFill=1;endSize=2;endArrow=none;sourcePerimeterSpacing=0;">
              <mxGeometry width    = "50"
                          height   = "50"
                          relative = "1"
                          as       = "geometry">
                <mxPoint x  = "180"
                         y  = "110"
                         as = "sourcePoint"/>
                <mxPoint x  = "165"
                         y  = "110"
                         as = "targetPoint"/>
              </mxGeometry>
            </mxCell>
            <mxCell id     = "not_full-label"
                    parent = "2"
                    value  = "not_full"
                    vertex = "1"
                    style  = "text;html=1;align=left;verticalAlign=middle;whiteSpace=wrap;rounded=0;fontSize=6;fontStyle=0;fontColor=black;connectable=0;">
              <mxGeometry
                x      = "15"
                y      = "120"
                width  = "150"
                height = "0"
                as     = "geometry"/>
            </mxCell>
            <mxCell id     = "not_full-arrow"
                    parent = "2"
                    value  = ""
                    edge   = "1"
                    style  = "html=1;rounded=1;strokeWidth=1;strokeColor=black;startFill=0;startSize=2;startArrow=none;endFill=1;endSize=2;endArrow=none;sourcePerimeterSpacing=0;">
              <mxGeometry width    = "50"
                          height   = "50"
                          relative = "1"
                          as       = "geometry">
                <mxPoint x  = "0"
                         y  = "120"
                         as = "sourcePoint"/>
                <mxPoint x  = "15"
                         y  = "120"
                         as = "targetPoint"/>
              </mxGeometry>
            </mxCell>
            <mxCell id="not_empty-label"
                    parent="2"
                    value="not_empty"
                    vertex="1"
                    style="text;html=1;align=right;verticalAlign=middle;whiteSpace=wrap;rounded=0;fontSize=6;fontStyle=0;fontColor=black;connectable=0;">
              <mxGeometry
                x      = "15"
                y      = "120"
                width  = "150"
                height = "0"
                as     = "geometry"/>
            </mxCell>
            <mxCell id     = "not_empty-arrow"
                    parent = "2"
                    value  = ""
                    edge   = "1"
                    style  = "html=1;rounded=1;strokeWidth=1;strokeColor=black;startFill=0;startSize=2;startArrow=none;endFill=1;endSize=2;endArrow=none;sourcePerimeterSpacing=0;">
              <mxGeometry width    = "50"
                          height   = "50"
                          relative = "1"
                          as       = "geometry">
                <mxPoint x  = "180"
                         y  = "120"
                         as = "sourcePoint"/>
                <mxPoint x  = "165"
                         y  = "120"
                         as = "targetPoint"/>
              </mxGeometry>
            </mxCell>
            <mxCell id     = "space-label"
                    parent = "2"
                    value  = "space"
                    vertex = "1"
                    style  = "text;html=1;align=left;verticalAlign=middle;whiteSpace=wrap;rounded=0;fontSize=6;fontStyle=0;fontColor=black;connectable=0;">
              <mxGeometry
                x      = "15"
                y      = "130"
                width  = "150"
                height = "0"
                as     = "geometry"/>
            </mxCell>
            <mxCell id     = "space-arrow"
                    parent = "2"
                    value  = ""
                    edge   = "1"
                    style  = "html=1;rounded=1;strokeWidth=1;strokeColor=black;startFill=0;startSize=2;startArrow=dash;endFill=1;endSize=2;endArrow=none;sourcePerimeterSpacing=0;">
              <mxGeometry width    = "50"
                          height   = "50"
                          relative = "1"
                          as       = "geometry">
                <mxPoint x  = "0"
                         y  = "130"
                         as = "sourcePoint"/>
                <mxPoint x  = "15"
                         y  = "130"
                         as = "targetPoint"/>
              </mxGeometry>
            </mxCell>
            <mxCell id="level-label"
                    parent="2"
                    value="level"
                    vertex="1"
                    style="text;html=1;align=right;verticalAlign=middle;whiteSpace=wrap;rounded=0;fontSize=6;fontStyle=0;fontColor=black;connectable=0;">
              <mxGeometry
                x      = "15"
                y      = "130"
                width  = "150"
                height = "0"
                as     = "geometry"/>
            </mxCell>
            <mxCell id     = "level-arrow"
                    parent = "2"
                    value  = ""
                    edge   = "1"
                    style  = "html=1;rounded=1;strokeWidth=1;strokeColor=black;startFill=0;startSize=2;startArrow=dash;endFill=1;endSize=2;endArrow=none;sourcePerimeterSpacing=0;">
              <mxGeometry width    = "50"
                          height   = "50"
                          relative = "1"
                          as       = "geometry">
                <mxPoint x  = "180"
                         y  = "130"
                         as = "sourcePoint"/>
                <mxPoint x  = "165"
                         y  = "130"
                         as = "targetPoint"/>
              </mxGeometry>
            </mxCell>
            <mxCell id     = "lower_threshold_level-label"
                    parent = "2"
                    value  = "lower_threshold_level"
                    vertex = "1"
                    style  = "text;html=1;align=left;verticalAlign=middle;whiteSpace=wrap;rounded=0;fontSize=6;fontStyle=0;fontColor=black;connectable=0;">
              <mxGeometry
                x      = "15"
                y      = "140"
                width  = "150"
                height = "0"
                as     = "geometry"/>
            </mxCell>
            <mxCell id     = "lower_threshold_level-arrow"
                    parent = "2"
                    value  = ""
                    edge   = "1"
                    style  = "html=1;rounded=1;strokeWidth=1;strokeColor=black;startFill=0;startSize=2;startArrow=dash;endFill=1;endSize=2;endArrow=blockThin;sourcePerimeterSpacing=0;">
              <mxGeometry width    = "50"
                          height   = "50"
                          relative = "1"
                          as       = "geometry">
                <mxPoint x  = "0"
                         y  = "140"
                         as = "sourcePoint"/>
                <mxPoint x  = "15"
                         y  = "140"
                         as = "targetPoint"/>
              </mxGeometry>
            </mxCell>
            <mxCell id="upper_threshold_level-label"
                    parent="2"
                    value="upper_threshold_level"
                    vertex="1"
                    style="text;html=1;align=right;verticalAlign=middle;whiteSpace=wrap;rounded=0;fontSize=6;fontStyle=0;fontColor=black;connectable=0;">
              <mxGeometry
                x      = "15"
                y      = "140"
                width  = "150"
                height = "0"
                as     = "geometry"/>
            </mxCell>
            <mxCell id     = "upper_threshold_level-arrow"
                    parent = "2"
                    value  = ""
                    edge   = "1"
                    style  = "html=1;rounded=1;strokeWidth=1;strokeColor=black;startFill=0;startSize=2;startArrow=dash;endFill=1;endSize=2;endArrow=blockThin;sourcePerimeterSpacing=0;">
              <mxGeometry width    = "50"
                          height   = "50"
                          relative = "1"
                          as       = "geometry">
                <mxPoint x  = "180"
                         y  = "140"
                         as = "sourcePoint"/>
                <mxPoint x  = "165"
                         y  = "140"
                         as = "targetPoint"/>
              </mxGeometry>
            </mxCell>
            <mxCell id     = "lower_threshold_status-label"
                    parent = "2"
                    value  = "lower_threshold_status"
                    vertex = "1"
                    style  = "text;html=1;align=left;verticalAlign=middle;whiteSpace=wrap;rounded=0;fontSize=6;fontStyle=0;fontColor=black;connectable=0;">
              <mxGeometry
                x      = "15"
                y      = "150"
                width  = "150"
                height = "0"
                as     = "geometry"/>
            </mxCell>
            <mxCell id     = "lower_threshold_status-arrow"
                    parent = "2"
                    value  = ""
                    edge   = "1"
                    style  = "html=1;rounded=1;strokeWidth=1;strokeColor=black;startFill=0;startSize=2;startArrow=none;endFill=1;endSize=2;endArrow=none;sourcePerimeterSpacing=0;">
              <mxGeometry width    = "50"
                          height   = "50"
                          relative = "1"
                          as       = "geometry">
                <mxPoint x  = "0"
                         y  = "150"
                         as = "sourcePoint"/>
                <mxPoint x  = "15"
                         y  = "150"
                         as = "targetPoint"/>
              </mxGeometry>
            </mxCell>
            <mxCell id="upper_threshold_status-label"
                    parent="2"
                    value="upper_threshold_status"
                    vertex="1"
                    style="text;html=1;align=right;verticalAlign=middle;whiteSpace=wrap;rounded=0;fontSize=6;fontStyle=0;fontColor=black;connectable=0;">
              <mxGeometry
                x      = "15"
                y      = "150"
                width  = "150"
                height = "0"
                as     = "geometry"/>
            </mxCell>
            <mxCell id     = "upper_threshold_status-arrow"
                    parent = "2"
                    value  = ""
                    edge   = "1"
                    style  = "html=1;rounded=1;strokeWidth=1;strokeColor=black;startFill=0;startSize=2;startArrow=none;endFill=1;endSize=2;endArrow=none;sourcePerimeterSpacing=0;">
              <mxGeometry width    = "50"
                          height   = "50"
                          relative = "1"
                          as       = "geometry">
                <mxPoint x  = "180"
                         y  = "150"
                         as = "sourcePoint"/>
                <mxPoint x  = "165"
                         y  = "150"
                         as = "targetPoint"/>
              </mxGeometry>
            </mxCell>
            <mxCell id="memory_clock-label"
                    parent="2"
                    value="memory_clock"
                    vertex="1"
                    style="text;html=1;align=right;verticalAlign=middle;whiteSpace=wrap;rounded=0;fontSize=6;fontStyle=0;fontColor=black;connectable=0;">
              <mxGeometry
                x      = "15"
                y      = "160"
                width  = "150"
                height = "0"
                as     = "geometry"/>
            </mxCell>
            <mxCell id     = "memory_clock-arrow"
                    parent = "2"
                    value  = ""
                    edge   = "1"
                    style  = "html=1;rounded=1;strokeWidth=1;strokeColor=black;startFill=0;startSize=2;startArrow=none;endFill=1;endSize=2;endArrow=none;sourcePerimeterSpacing=0;">
              <mxGeometry width    = "50"
                          height   = "50"
                          relative = "1"
                          as       = "geometry">
                <mxPoint x  = "180"
                         y  = "160"
                         as = "sourcePoint"/>
                <mxPoint x  = "165"
                         y  = "160"
                         as = "targetPoint"/>
              </mxGeometry>
            </mxCell>
            <mxCell id="memory_write_enable-label"
                    parent="2"
                    value="memory_write_enable"
                    vertex="1"
                    style="text;html=1;align=right;verticalAlign=middle;whiteSpace=wrap;rounded=0;fontSize=6;fontStyle=0;fontColor=black;connectable=0;">
              <mxGeometry
                x      = "15"
                y      = "170"
                width  = "150"
                height = "0"
                as     = "geometry"/>
            </mxCell>
            <mxCell id     = "memory_write_enable-arrow"
                    parent = "2"
                    value  = ""
                    edge   = "1"
                    style  = "html=1;rounded=1;strokeWidth=1;strokeColor=black;startFill=0;startSize=2;startArrow=none;endFill=1;endSize=2;endArrow=none;sourcePerimeterSpacing=0;">
              <mxGeometry width    = "50"
                          height   = "50"
                          relative = "1"
                          as       = "geometry">
                <mxPoint x  = "180"
                         y  = "170"
                         as = "sourcePoint"/>
                <mxPoint x  = "165"
                         y  = "170"
                         as = "targetPoint"/>
              </mxGeometry>
            </mxCell>
            <mxCell id="memory_write_address-label"
                    parent="2"
                    value="memory_write_address"
                    vertex="1"
                    style="text;html=1;align=right;verticalAlign=middle;whiteSpace=wrap;rounded=0;fontSize=6;fontStyle=0;fontColor=black;connectable=0;">
              <mxGeometry
                x      = "15"
                y      = "180"
                width  = "150"
                height = "0"
                as     = "geometry"/>
            </mxCell>
            <mxCell id     = "memory_write_address-arrow"
                    parent = "2"
                    value  = ""
                    edge   = "1"
                    style  = "html=1;rounded=1;strokeWidth=1;strokeColor=black;startFill=0;startSize=2;startArrow=dash;endFill=1;endSize=2;endArrow=none;sourcePerimeterSpacing=0;">
              <mxGeometry width    = "50"
                          height   = "50"
                          relative = "1"
                          as       = "geometry">
                <mxPoint x  = "180"
                         y  = "180"
                         as = "sourcePoint"/>
                <mxPoint x  = "165"
                         y  = "180"
                         as = "targetPoint"/>
              </mxGeometry>
            </mxCell>
            <mxCell id="memory_write_data-label"
                    parent="2"
                    value="memory_write_data"
                    vertex="1"
                    style="text;html=1;align=right;verticalAlign=middle;whiteSpace=wrap;rounded=0;fontSize=6;fontStyle=0;fontColor=black;connectable=0;">
              <mxGeometry
                x      = "15"
                y      = "190"
                width  = "150"
                height = "0"
                as     = "geometry"/>
            </mxCell>
            <mxCell id     = "memory_write_data-arrow"
                    parent = "2"
                    value  = ""
                    edge   = "1"
                    style  = "html=1;rounded=1;strokeWidth=1;strokeColor=black;startFill=0;startSize=2;startArrow=dash;endFill=1;endSize=2;endArrow=none;sourcePerimeterSpacing=0;">
              <mxGeometry width    = "50"
                          height   = "50"
                          relative = "1"
                          as       = "geometry">
                <mxPoint x  = "180"
                         y  = "190"
                         as = "sourcePoint"/>
                <mxPoint x  = "165"
                         y  = "190"
                         as = "targetPoint"/>
              </mxGeometry>
            </mxCell>
            <mxCell id="memory_read_enable-label"
                    parent="2"
                    value="memory_read_enable"
                    vertex="1"
                    style="text;html=1;align=right;verticalAlign=middle;whiteSpace=wrap;rounded=0;fontSize=6;fontStyle=0;fontColor=black;connectable=0;">
              <mxGeometry
                x      = "15"
                y      = "200"
                width  = "150"
                height = "0"
                as     = "geometry"/>
            </mxCell>
            <mxCell id     = "memory_read_enable-arrow"
                    parent = "2"
                    value  = ""
                    edge   = "1"
                    style  = "html=1;rounded=1;strokeWidth=1;strokeColor=black;startFill=0;startSize=2;startArrow=none;endFill=1;endSize=2;endArrow=none;sourcePerimeterSpacing=0;">
              <mxGeometry width    = "50"
                          height   = "50"
                          relative = "1"
                          as       = "geometry">
                <mxPoint x  = "180"
                         y  = "200"
                         as = "sourcePoint"/>
                <mxPoint x  = "165"
                         y  = "200"
                         as = "targetPoint"/>
              </mxGeometry>
            </mxCell>
            <mxCell id="memory_read_address-label"
                    parent="2"
                    value="memory_read_address"
                    vertex="1"
                    style="text;html=1;align=right;verticalAlign=middle;whiteSpace=wrap;rounded=0;fontSize=6;fontStyle=0;fontColor=black;connectable=0;">
              <mxGeometry
                x      = "15"
                y      = "210"
                width  = "150"
                height = "0"
                as     = "geometry"/>
            </mxCell>
            <mxCell id     = "memory_read_address-arrow"
                    parent = "2"
                    value  = ""
                    edge   = "1"
                    style  = "html=1;rounded=1;strokeWidth=1;strokeColor=black;startFill=0;startSize=2;startArrow=dash;endFill=1;endSize=2;endArrow=none;sourcePerimeterSpacing=0;">
              <mxGeometry width    = "50"
                          height   = "50"
                          relative = "1"
                          as       = "geometry">
                <mxPoint x  = "180"
                         y  = "210"
                         as = "sourcePoint"/>
                <mxPoint x  = "165"
                         y  = "210"
                         as = "targetPoint"/>
              </mxGeometry>
            </mxCell>
            <mxCell id="memory_read_data-label"
                    parent="2"
                    value="memory_read_data"
                    vertex="1"
                    style="text;html=1;align=right;verticalAlign=middle;whiteSpace=wrap;rounded=0;fontSize=6;fontStyle=0;fontColor=black;connectable=0;">
              <mxGeometry
                x      = "15"
                y      = "220"
                width  = "150"
                height = "0"
                as     = "geometry"/>
            </mxCell>
            <mxCell id     = "memory_read_data-arrow"
                    parent = "2"
                    value  = ""
                    edge   = "1"
                    style  = "html=1;rounded=1;strokeWidth=1;strokeColor=black;startFill=0;startSize=2;startArrow=dash;endFill=1;endSize=2;endArrow=blockThin;sourcePerimeterSpacing=0;">
              <mxGeometry width    = "50"
                          height   = "50"
                          relative = "1"
                          as       = "geometry">
                <mxPoint x  = "180"
                         y  = "220"
                         as = "sourcePoint"/>
                <mxPoint x  = "165"
                         y  = "220"
                         as = "targetPoint"/>
              </mxGeometry>
            </mxCell>
      </root>
    </mxGraphModel>
  </diagram>
</mxfile>